<svg xmlns="http://www.w3.org/2000/svg" width="760" height="460" viewBox="0 0 760 460">
<rect width="100%" height="100%" fill="white"/>
<text x="380" y="28" text-anchor="middle" font-size="20" font-weight="bold">Ic-Vc output characteristics from SDevice PLT</text>
<rect x="80" y="58" width="652" height="344" fill="white" stroke="black"/>
<line x1="80.0" y1="58" x2="80.0" y2="402" stroke="#ddd"/>
<text x="80.0" y="420" text-anchor="middle" font-size="11">0</text>
<line x1="210.4" y1="58" x2="210.4" y2="402" stroke="#ddd"/>
<text x="210.4" y="420" text-anchor="middle" font-size="11">2</text>
<line x1="340.8" y1="58" x2="340.8" y2="402" stroke="#ddd"/>
<text x="340.8" y="420" text-anchor="middle" font-size="11">4</text>
<line x1="471.2" y1="58" x2="471.2" y2="402" stroke="#ddd"/>
<text x="471.2" y="420" text-anchor="middle" font-size="11">6</text>
<line x1="601.6" y1="58" x2="601.6" y2="402" stroke="#ddd"/>
<text x="601.6" y="420" text-anchor="middle" font-size="11">8</text>
<line x1="732.0" y1="58" x2="732.0" y2="402" stroke="#ddd"/>
<text x="732.0" y="420" text-anchor="middle" font-size="11">10</text>
<line x1="80" y1="402.0" x2="732" y2="402.0" stroke="#ddd"/><text x="72" y="406.0" text-anchor="end" font-size="11">-4.01</text>
<line x1="80" y1="333.2" x2="732" y2="333.2" stroke="#ddd"/><text x="72" y="337.2" text-anchor="end" font-size="11">13.6</text>
<line x1="80" y1="264.4" x2="732" y2="264.4" stroke="#ddd"/><text x="72" y="268.4" text-anchor="end" font-size="11">31.3</text>
<line x1="80" y1="195.6" x2="732" y2="195.6" stroke="#ddd"/><text x="72" y="199.6" text-anchor="end" font-size="11">48.9</text>
<line x1="80" y1="126.8" x2="732" y2="126.8" stroke="#ddd"/><text x="72" y="130.8" text-anchor="end" font-size="11">66.6</text>
<line x1="80" y1="58.0" x2="732" y2="58.0" stroke="#ddd"/><text x="72" y="62.0" text-anchor="end" font-size="11">84.2</text>
<polyline points="80.0,386.4 88.2,385.8 96.3,385.2 104.5,384.6 112.6,383.9 120.8,383.2 128.9,381.7 137.1,378.3 145.2,373.5 153.4,367.9 161.5,361.9 169.7,355.8 177.8,349.5 185.9,343.2 194.1,337.0 202.2,330.8 210.4,324.8 218.5,318.8 226.7,313.0 234.8,307.3 243.0,301.8 251.2,296.4 259.3,291.1 267.4,286.0 275.6,281.0 283.8,276.2 291.9,271.5 300.1,266.9 308.2,262.4 316.4,258.1 324.5,253.8 332.6,249.7 340.8,245.7 348.9,241.7 357.1,237.9 365.2,234.1 373.4,230.5 381.6,226.8 389.7,223.3 397.8,219.8 406.0,216.4 414.1,213.0 422.3,209.6 430.4,206.3 438.6,203.0 446.8,199.8 454.9,196.6 463.1,193.5 471.2,190.3 479.4,187.2 487.5,184.2 495.6,181.1 503.8,178.1 511.9,175.1 520.1,172.1 528.2,169.2 536.4,166.3 544.5,163.4 552.7,160.6 560.8,157.7 569.0,154.9 577.1,152.1 585.3,149.4 593.4,146.7 601.6,144.0 609.7,141.3 617.9,138.6 626.0,136.0 634.2,133.3 642.3,130.7 650.5,128.1 658.6,125.4 666.8,122.8 674.9,120.2 683.1,117.6 691.2,115.0 699.4,112.4 707.5,109.8 715.7,107.2 732.0,102.1" fill="none" stroke="#1f77b4" stroke-width="2"/>
<line x1="94" y1="76" x2="124" y2="76" stroke="#1f77b4" stroke-width="2"/><text x="132" y="80" font-size="12">n18 off</text>
<polyline points="80.0,386.4 88.2,385.8 96.3,385.2 104.5,384.6 112.6,383.9 120.8,383.2 128.9,381.7 137.1,378.3 145.2,373.5 153.4,367.9 161.5,361.9 169.7,355.8 177.8,349.5 185.9,343.2 194.1,337.0 202.2,330.8 210.4,324.8 218.5,318.8 226.7,313.0 234.8,307.3 243.0,301.8 251.2,296.4 259.3,291.1 267.4,286.0 275.6,281.1 283.8,276.2 291.9,271.5 300.1,266.9 308.2,262.5 316.4,258.1 324.5,253.9 332.6,249.7 340.8,245.7 348.9,241.8 357.1,238.0 365.2,234.2 373.4,230.5 381.6,226.9 389.7,223.4 397.8,219.9 406.0,216.5 414.1,213.1 422.3,209.7 430.4,206.4 438.6,203.2 446.8,200.0 454.9,196.8 463.1,193.6 471.2,190.5 479.4,187.4 487.5,184.3 495.6,181.3 503.8,178.3 511.9,175.3 520.1,172.4 528.2,169.4 536.4,166.5 544.5,163.7 552.7,160.8 560.8,158.0 569.0,155.2 577.1,152.5 585.3,149.7 593.4,147.0 601.6,144.3 609.7,141.7 617.9,139.0 626.0,136.4 634.2,133.7 642.3,131.1 650.5,128.5 658.6,125.9 666.8,123.3 674.9,120.7 683.1,118.1 691.2,115.5 699.4,112.9 707.5,110.3 715.7,107.8 732.0,102.6" fill="none" stroke="#d95f02" stroke-width="2"/>
<line x1="94" y1="96" x2="124" y2="96" stroke="#d95f02" stroke-width="2"/><text x="132" y="100" font-size="12">n19 on</text>
<text x="406" y="444" text-anchor="middle" font-size="15">VCE (V)</text>
<text transform="translate(22,230) rotate(-90)" text-anchor="middle" font-size="15">IC (A)</text>
</svg>