<svg xmlns="http://www.w3.org/2000/svg" width="760" height="460" viewBox="0 0 760 460">
<rect width="100%" height="100%" fill="white"/>
<text x="380" y="28" text-anchor="middle" font-size="20" font-weight="bold">Ic-Vg transfer curve from SDevice PLT</text>
<rect x="80" y="58" width="652" height="344" fill="white" stroke="black"/>
<line x1="80.0" y1="58" x2="80.0" y2="402" stroke="#ddd"/>
<text x="80.0" y="420" text-anchor="middle" font-size="11">0</text>
<line x1="210.4" y1="58" x2="210.4" y2="402" stroke="#ddd"/>
<text x="210.4" y="420" text-anchor="middle" font-size="11">3</text>
<line x1="340.8" y1="58" x2="340.8" y2="402" stroke="#ddd"/>
<text x="340.8" y="420" text-anchor="middle" font-size="11">6</text>
<line x1="471.2" y1="58" x2="471.2" y2="402" stroke="#ddd"/>
<text x="471.2" y="420" text-anchor="middle" font-size="11">9</text>
<line x1="601.6" y1="58" x2="601.6" y2="402" stroke="#ddd"/>
<text x="601.6" y="420" text-anchor="middle" font-size="11">12</text>
<line x1="732.0" y1="58" x2="732.0" y2="402" stroke="#ddd"/>
<text x="732.0" y="420" text-anchor="middle" font-size="11">15</text>
<line x1="80" y1="402.0" x2="732" y2="402.0" stroke="#ddd"/>
<text x="72" y="406.0" text-anchor="end" font-size="11">-2.4</text>
<line x1="80" y1="333.2" x2="732" y2="333.2" stroke="#ddd"/>
<text x="72" y="337.2" text-anchor="end" font-size="11">8.15</text>
<line x1="80" y1="264.4" x2="732" y2="264.4" stroke="#ddd"/>
<text x="72" y="268.4" text-anchor="end" font-size="11">18.7</text>
<line x1="80" y1="195.6" x2="732" y2="195.6" stroke="#ddd"/>
<text x="72" y="199.6" text-anchor="end" font-size="11">29.3</text>
<line x1="80" y1="126.8" x2="732" y2="126.8" stroke="#ddd"/>
<text x="72" y="130.8" text-anchor="end" font-size="11">39.8</text>
<line x1="80" y1="58.0" x2="732" y2="58.0" stroke="#ddd"/>
<text x="72" y="62.0" text-anchor="end" font-size="11">50.4</text>
<polyline points="80.0,386.4 96.3,386.4 112.6,386.4 128.9,386.4 145.2,386.4 161.5,386.4 177.8,386.4 194.1,386.4 210.4,386.4 226.7,386.4 243.0,386.4 259.3,386.4 275.6,386.4 291.9,386.4 308.2,386.4 324.5,386.4 340.8,386.2 357.1,385.1 373.4,380.6 389.7,368.7 406.0,346.7 422.3,313.4 438.6,268.3 454.9,214.7 471.2,180.0 487.5,162.4 503.8,151.0 520.1,142.6 536.4,136.0 552.7,130.6 569.0,126.1 585.3,122.2 601.6,118.9 617.9,115.9 634.2,113.3 650.5,111.0 666.8,108.9 683.1,106.9 699.4,105.2 715.7,103.6 732.0,102.1" fill="none" stroke="#1f77b4" stroke-width="2"/>
<line x1="94" y1="76" x2="124" y2="76" stroke="#1f77b4" stroke-width="2"/>
<text x="132" y="80" font-size="12">n10 self-heating off</text>
<polyline points="80.0,386.4 96.3,386.4 112.6,386.4 128.9,386.4 145.2,386.4 161.5,386.4 177.8,386.4 194.1,386.4 210.4,386.4 226.7,386.4 243.0,386.4 259.3,386.4 275.6,386.4 291.9,386.4 308.2,386.4 324.5,386.4 340.8,386.2 357.1,385.1 373.4,380.6 389.7,368.7 406.0,346.7 422.3,313.4 438.6,268.3 454.9,214.8 471.2,180.0 487.5,162.5 503.8,151.1 520.1,142.7 536.4,136.1 552.7,130.7 569.0,126.2 585.3,122.4 601.6,119.0 617.9,116.1 634.2,113.5 650.5,111.1 666.8,109.0 683.1,107.1 699.4,105.3 715.7,103.7 732.0,102.2" fill="none" stroke="#d95f02" stroke-width="2"/>
<line x1="94" y1="96" x2="124" y2="96" stroke="#d95f02" stroke-width="2"/>
<text x="132" y="100" font-size="12">n11 self-heating on</text>
<text x="406" y="444" text-anchor="middle" font-size="15">VGE (V)</text>
<text transform="translate(22,230) rotate(-90)" text-anchor="middle" font-size="15">IC (A)</text>
</svg>