<svg xmlns="http://www.w3.org/2000/svg" width="760" height="460" viewBox="0 0 760 460">
<rect width="100%" height="100%" fill="white"/>
<text x="380" y="28" text-anchor="middle" font-size="20" font-weight="bold">Snapback / continuation curve from SDevice PLT</text>
<rect x="80" y="58" width="652" height="344" fill="white" stroke="black"/>
<line x1="80.0" y1="58" x2="80.0" y2="402" stroke="#ddd"/><text x="80.0" y="420" text-anchor="middle" font-size="11">0</text>
<line x1="210.4" y1="58" x2="210.4" y2="402" stroke="#ddd"/><text x="210.4" y="420" text-anchor="middle" font-size="11">25.2</text>
<line x1="340.8" y1="58" x2="340.8" y2="402" stroke="#ddd"/><text x="340.8" y="420" text-anchor="middle" font-size="11">50.4</text>
<line x1="471.2" y1="58" x2="471.2" y2="402" stroke="#ddd"/><text x="471.2" y="420" text-anchor="middle" font-size="11">75.5</text>
<line x1="601.6" y1="58" x2="601.6" y2="402" stroke="#ddd"/><text x="601.6" y="420" text-anchor="middle" font-size="11">101</text>
<line x1="732.0" y1="58" x2="732.0" y2="402" stroke="#ddd"/><text x="732.0" y="420" text-anchor="middle" font-size="11">126</text>
<line x1="80" y1="402.0" x2="732" y2="402.0" stroke="#ddd"/><text x="72" y="406.0" text-anchor="end" font-size="11">-1.86</text>
<line x1="80" y1="333.2" x2="732" y2="333.2" stroke="#ddd"/><text x="72" y="337.2" text-anchor="end" font-size="11">6.33</text>
<line x1="80" y1="264.4" x2="732" y2="264.4" stroke="#ddd"/><text x="72" y="268.4" text-anchor="end" font-size="11">14.5</text>
<line x1="80" y1="195.6" x2="732" y2="195.6" stroke="#ddd"/><text x="72" y="199.6" text-anchor="end" font-size="11">22.7</text>
<line x1="80" y1="126.8" x2="732" y2="126.8" stroke="#ddd"/><text x="72" y="130.8" text-anchor="end" font-size="11">30.9</text>
<line x1="80" y1="58.0" x2="732" y2="58.0" stroke="#ddd"/><text x="72" y="62.0" text-anchor="end" font-size="11">39.1</text>
<polyline points="80.0,386.4 80.1,386.2 80.3,386.0 80.5,385.7 80.8,385.3 81.3,384.6 82.2,383.4 83.9,381.4 85.1,373.2 87.1,359.2 97.9,327.1 112.2,323.3 128.3,335.6 145.0,338.2 161.4,338.1 177.3,337.0 192.5,335.3 206.8,333.3 220.4,331.1 233.3,328.8 256.9,323.8 267.9,321.3 278.2,318.8 288.2,316.1 297.7,313.2 306.9,310.2 315.9,307.1 324.7,304.0 333.2,300.7 341.6,297.4 357.8,290.8 365.7,287.4 373.5,284.1 381.1,280.8 388.6,277.6 395.9,274.5 403.1,271.4 410.2,268.1 417.3,264.5 424.3,260.7 438.2,253.2 445.1,249.5 452.0,245.7 458.8,242.0 465.6,238.2 472.4,234.5 479.1,230.8 485.8,227.1 492.4,223.4 499.0,219.8 512.1,212.9 518.5,209.7 524.8,206.6 531.1,203.5 537.3,200.1 543.5,196.3 549.7,192.3 556.0,188.3 562.2,184.3 568.3,180.4 580.7,172.7 586.8,168.9 592.9,165.2 599.0,161.6 605.1,157.9 611.1,154.4 617.1,150.9 623.1,147.4 629.0,144.1 634.8,140.8 646.4,134.6 652.1,131.7 657.7,129.0 663.3,126.5 668.7,124.2 674.1,121.8 679.5,118.7 684.8,114.8 690.2,110.5 701.0,102.1" fill="none" stroke="#1f77b4" stroke-width="2"/>
<line x1="94" y1="76" x2="124" y2="76" stroke="#1f77b4" stroke-width="2"/><text x="132" y="80" font-size="12">cont n30 off</text>
<polyline points="80.0,386.4 80.1,386.2 80.3,386.0 80.5,385.7 80.8,385.3 81.3,384.6 82.2,383.4 83.9,381.4 85.1,373.2 87.1,359.2 97.9,327.1 112.2,323.3 128.3,335.6 145.0,338.2 161.4,338.1 177.3,337.0 192.5,335.3 206.8,333.3 220.4,331.1 233.2,328.8 256.9,323.8 267.8,321.3 278.2,318.8 288.1,316.1 297.6,313.3 306.8,310.3 315.8,307.2 324.5,304.0 333.0,300.8 341.3,297.5 357.5,290.8 365.4,287.5 373.2,284.2 380.8,280.9 388.2,277.8 395.5,274.7 402.7,271.6 409.7,268.2 416.7,264.6 423.7,260.9 437.5,253.4 444.4,249.7 451.2,246.0 458.0,242.2 464.8,238.5 471.5,234.8 478.2,231.1 484.8,227.4 491.4,223.8 498.0,220.2 510.9,213.3 517.3,210.1 523.5,207.1 529.7,204.0 535.9,200.6 542.1,196.8 548.2,192.9 554.3,188.9 560.5,184.9 566.6,181.0 578.8,173.4 584.8,169.7 590.9,166.0 596.9,162.4 602.9,158.8 608.8,155.3 614.7,151.8 620.6,148.4 626.4,145.1 632.2,141.9 643.6,135.7 649.2,132.8 654.7,130.2 660.2,127.8 665.5,125.5 670.8,123.1 676.1,120.0 681.3,116.2 686.6,112.0 697.2,103.7" fill="none" stroke="#d95f02" stroke-width="2"/>
<line x1="94" y1="96" x2="124" y2="96" stroke="#d95f02" stroke-width="2"/><text x="132" y="100" font-size="12">cont n31 on</text>
<text x="406" y="444" text-anchor="middle" font-size="15">IC (A)</text>
<text transform="translate(22,230) rotate(-90)" text-anchor="middle" font-size="15">VCE (V)</text>
</svg>