<svg xmlns="http://www.w3.org/2000/svg" width="900" height="520" viewBox="0 0 900 520">
<rect width="900" height="520" fill="white"/>
<text x="35" y="35" font-size="24" font-weight="bold">RC-IGBT / IGBT structure overview</text>
<text x="35" y="60" font-size="13">Schematic reconstructed for documentation. The uploaded package contains the corresponding SDE mesh and Workbench source decks.</text>
<rect x="70" y="95" width="760" height="38" fill="#d8f3ff" stroke="#333"/><text x="390" y="120" font-size="14">oxide / passivation</text>
<rect x="70" y="133" width="760" height="78" fill="#fdd0a2" stroke="#333"/><text x="375" y="177" font-size="17" font-weight="bold">P-body / MOS channel</text>
<rect x="70" y="211" width="760" height="170" fill="#d9f0a3" stroke="#333"/><text x="392" y="300" font-size="22" font-weight="bold">N- drift region</text>
<rect x="70" y="381" width="760" height="43" fill="#78c679" stroke="#333"/><text x="380" y="407" font-size="15">N buffer / field-stop</text>
<rect x="70" y="424" width="120" height="45" fill="#f768a1" stroke="#333"/><text x="105" y="452" font-size="13">P+</text>
<rect x="190" y="424" width="95" height="45" fill="#41b6c4" stroke="#333"/><text x="210" y="452" font-size="13">N+ short</text>
<rect x="285" y="424" width="120" height="45" fill="#f768a1" stroke="#333"/><text x="320" y="452" font-size="13">P+</text>
<rect x="405" y="424" width="95" height="45" fill="#41b6c4" stroke="#333"/><text x="425" y="452" font-size="13">N+ short</text>
<rect x="500" y="424" width="120" height="45" fill="#f768a1" stroke="#333"/><text x="535" y="452" font-size="13">P+</text>
<rect x="620" y="424" width="210" height="45" fill="#41b6c4" stroke="#333"/><text x="680" y="452" font-size="13">N+ collector short</text>
<rect x="130" y="104" width="50" height="30" fill="#43a2ca" stroke="#333"/><rect x="300" y="104" width="50" height="30" fill="#43a2ca" stroke="#333"/><rect x="470" y="104" width="50" height="30" fill="#43a2ca" stroke="#333"/><rect x="640" y="104" width="50" height="30" fill="#43a2ca" stroke="#333"/>
<rect x="218" y="85" width="25" height="145" fill="#756bb1" stroke="#333"/><rect x="388" y="85" width="25" height="145" fill="#756bb1" stroke="#333"/><rect x="558" y="85" width="25" height="145" fill="#756bb1" stroke="#333"/><rect x="728" y="85" width="25" height="145" fill="#756bb1" stroke="#333"/>
<text x="128" y="90" font-size="12">N+ emitter cells</text><text x="215" y="80" font-size="12">trench gates</text>
<line x1="265" y1="340" x2="360" y2="245" stroke="#111" stroke-width="2"/><text x="155" y="355" font-size="13">forward IGBT conduction</text>
<line x1="655" y1="250" x2="720" y2="423" stroke="#111" stroke-width="2"/><text x="610" y="235" font-size="13">reverse conduction path</text>
</svg>
