<svg xmlns="http://www.w3.org/2000/svg" width="760" height="460" viewBox="0 0 760 460">
<rect width="100%" height="100%" fill="white"/>
<text x="380" y="28" text-anchor="middle" font-size="20" font-weight="bold">Blocking / BV sweep from SDevice PLT</text>
<rect x="80" y="58" width="652" height="344" fill="white" stroke="black"/>
<line x1="80.0" y1="58" x2="80.0" y2="402" stroke="#ddd"/>
<text x="80.0" y="420" text-anchor="middle" font-size="11">0</text>
<line x1="210.4" y1="58" x2="210.4" y2="402" stroke="#ddd"/><text x="210.4" y="420" text-anchor="middle" font-size="11">54.6</text>
<line x1="340.8" y1="58" x2="340.8" y2="402" stroke="#ddd"/><text x="340.8" y="420" text-anchor="middle" font-size="11">109</text>
<line x1="471.2" y1="58" x2="471.2" y2="402" stroke="#ddd"/><text x="471.2" y="420" text-anchor="middle" font-size="11">164</text>
<line x1="601.6" y1="58" x2="601.6" y2="402" stroke="#ddd"/><text x="601.6" y="420" text-anchor="middle" font-size="11">218</text>
<line x1="732.0" y1="58" x2="732.0" y2="402" stroke="#ddd"/><text x="732.0" y="420" text-anchor="middle" font-size="11">273</text>
<line x1="80" y1="402.0" x2="732" y2="402.0" stroke="#ddd"/><text x="72" y="406.0" text-anchor="end" font-size="11">1e-20</text>
<line x1="80" y1="346.5" x2="732" y2="346.5" stroke="#ddd"/><text x="72" y="350.5" text-anchor="end" font-size="11">1e-17</text>
<line x1="80" y1="291.0" x2="732" y2="291.0" stroke="#ddd"/><text x="72" y="295.0" text-anchor="end" font-size="11">1e-14</text>
<line x1="80" y1="235.5" x2="732" y2="235.5" stroke="#ddd"/><text x="72" y="239.5" text-anchor="end" font-size="11">1e-11</text>
<line x1="80" y1="180.0" x2="732" y2="180.0" stroke="#ddd"/><text x="72" y="184.0" text-anchor="end" font-size="11">1e-8</text>
<line x1="80" y1="124.4" x2="732" y2="124.4" stroke="#ddd"/><text x="72" y="128.4" text-anchor="end" font-size="11">1e-5</text>
<line x1="80" y1="68.9" x2="732" y2="68.9" stroke="#ddd"/><text x="72" y="72.9" text-anchor="end" font-size="11">1e-2</text>
<polyline points="80.0,363.9 83.6,166.1 87.6,163.9 92.0,162.9 97.0,162.2 102.6,160.1 109.0,159.4 116.3,157.6 124.4,157.2 133.7,155.9 144.1,155.5 155.9,155.3 169.1,154.9 184.1,154.6 201.0,153.4 220.1,152.8 241.5,152.6 265.5,152.5 292.8,152.4 323.3,151.0 357.6,149.8 396.2,149.6 439.6,149.2 488.4,148.2 543.3,147.6 605.1,145.8 674.2,142.0 712.9,134.0 718.4,124.4 718.8,121.2 719.0,116.9 719.1,107.0 719.1,99.5 719.2,86.7 719.2,75.7 719.2,70.4 719.2,66.8" fill="none" stroke="#1f77b4" stroke-width="2"/>
<line x1="94" y1="76" x2="124" y2="76" stroke="#1f77b4" stroke-width="2"/><text x="132" y="80" font-size="12">n22 off</text>
<polyline points="80.0,358.8 80.9,173.9 81.9,170.9 83.0,166.9 84.3,165.8 85.7,164.3 87.3,164.0 89.2,163.1 91.3,163.0 93.6,162.8 96.3,162.5 99.4,160.3 102.9,160.0 106.8,159.8 111.2,159.2 116.2,157.6 121.9,157.4 128.3,156.9 135.5,155.8 143.7,155.5 153.0,155.3 163.5,155.2 175.2,154.8 188.6,154.6 203.7,153.3 220.7,152.7 239.8,152.6 261.5,152.6 285.8,152.4 313.3,151.7 344.1,149.9 379.1,149.7 418.2,149.4 462.2,148.5 511.6,148.0 566.6,147.2 628.2,144.5 697.3,139.2 716.7,129.9 718.0,126.3 718.8,121.1 719.0,116.8 719.1,106.1 719.2,97.1 719.2,85.3 719.2,77.8 719.2,73.3 719.2,70.1 719.2,67.5" fill="none" stroke="#d95f02" stroke-width="2"/>
<line x1="94" y1="96" x2="124" y2="96" stroke="#d95f02" stroke-width="2"/><text x="132" y="100" font-size="12">n23 on</text>
<text x="406" y="444" text-anchor="middle" font-size="15">VCE (V)</text>
<text transform="translate(22,230) rotate(-90)" text-anchor="middle" font-size="15">|IC| (A)</text>
</svg>