<svg xmlns="http://www.w3.org/2000/svg" width="760" height="460" viewBox="0 0 760 460">
<rect width="100%" height="100%" fill="white"/>
<text x="380" y="28" text-anchor="middle" font-size="20" font-weight="bold">DPT / reverse-recovery device current</text>
<rect x="80" y="58" width="652" height="344" fill="white" stroke="black"/>
<line x1="80.0" y1="58" x2="80.0" y2="402" stroke="#ddd"/><text x="80.0" y="420" text-anchor="middle" font-size="11">0</text>
<line x1="210.4" y1="58" x2="210.4" y2="402" stroke="#ddd"/><text x="210.4" y="420" text-anchor="middle" font-size="11">540</text>
<line x1="340.8" y1="58" x2="340.8" y2="402" stroke="#ddd"/><text x="340.8" y="420" text-anchor="middle" font-size="11">1.08e+03</text>
<line x1="471.2" y1="58" x2="471.2" y2="402" stroke="#ddd"/><text x="471.2" y="420" text-anchor="middle" font-size="11">1.62e+03</text>
<line x1="601.6" y1="58" x2="601.6" y2="402" stroke="#ddd"/><text x="601.6" y="420" text-anchor="middle" font-size="11">2.16e+03</text>
<line x1="732.0" y1="58" x2="732.0" y2="402" stroke="#ddd"/><text x="732.0" y="420" text-anchor="middle" font-size="11">2.7e+03</text>
<line x1="80" y1="402.0" x2="732" y2="402.0" stroke="#ddd"/><text x="72" y="406.0" text-anchor="end" font-size="11">-4.51</text>
<line x1="80" y1="333.2" x2="732" y2="333.2" stroke="#ddd"/><text x="72" y="337.2" text-anchor="end" font-size="11">10.1</text>
<line x1="80" y1="264.4" x2="732" y2="264.4" stroke="#ddd"/><text x="72" y="268.4" text-anchor="end" font-size="11">24.8</text>
<line x1="80" y1="195.6" x2="732" y2="195.6" stroke="#ddd"/><text x="72" y="199.6" text-anchor="end" font-size="11">39.4</text>
<line x1="80" y1="126.8" x2="732" y2="126.8" stroke="#ddd"/><text x="72" y="130.8" text-anchor="end" font-size="11">54.1</text>
<line x1="80" y1="58.0" x2="732" y2="58.0" stroke="#ddd"/><text x="72" y="62.0" text-anchor="end" font-size="11">68.7</text>
<polyline points="80.0,380.8 88.2,380.8 96.3,380.8 104.5,380.9 112.6,117.2 120.8,342.5 128.9,379.9 137.1,379.4 145.2,379.1 153.4,378.9 161.5,378.6 169.7,378.2 177.8,377.9 185.9,377.5 194.1,377.2 202.2,376.8 212.0,376.3 220.2,375.9 228.3,375.5 236.5,375.1 244.6,374.7 252.8,374.3 260.9,373.9 269.1,373.5 277.2,373.1 285.4,372.8 293.5,372.4 301.7,372.0 309.8,371.6 318.0,371.2 326.1,370.8 334.3,370.5 344.1,370.0 352.2,369.6 360.4,369.2 368.5,368.0 376.7,377.2 384.8,377.9 393.0,378.1 401.1,378.5 409.3,378.6 417.4,378.8 425.6,378.9 433.7,378.9 441.9,379.0 450.0,379.1 458.2,379.1 466.3,379.1 476.1,379.1 484.2,379.2 492.4,379.2 500.5,379.3 508.7,379.3 516.8,379.5 525.0,73.6 533.1,354.9 541.3,364.5 549.4,364.2 557.6,363.9 565.7,363.5 573.9,363.1 582.0,362.8 590.2,362.4 598.3,362.0 608.1,361.6 616.3,361.2 624.4,360.8 632.6,360.5 640.7,360.1 648.9,359.6 657.0,363.7 665.2,375.5 673.3,376.5 681.5,376.9 689.6,377.3 697.8,377.6 705.9,377.7 714.1,377.8 722.2,377.9 732.0,377.9" fill="none" stroke="#1f77b4" stroke-width="2"/>
<line x1="94" y1="76" x2="124" y2="76" stroke="#1f77b4" stroke-width="2"/><text x="132" y="80" font-size="12">Q1 IC n27</text>
<polyline points="80.0,380.8 88.2,380.8 96.3,380.8 104.5,380.8 112.6,332.7 120.8,377.2 128.9,380.7 137.1,380.7 145.2,380.8 153.4,380.8 161.5,380.8 169.7,380.8 177.8,380.8 185.9,380.8 194.1,380.8 202.2,380.8 212.0,380.8 220.2,380.8 228.3,380.8 236.5,380.8 244.6,380.8 252.8,380.8 260.9,380.8 269.1,380.8 277.2,380.8 285.4,380.8 293.5,380.8 301.7,380.8 309.8,380.8 318.0,380.8 326.1,380.8 334.3,380.8 344.1,380.8 352.2,380.8 360.4,380.8 368.5,380.7 376.7,381.6 384.8,381.7 393.0,381.7 401.1,381.8 409.3,381.9 417.4,381.9 425.6,382.0 433.7,382.0 441.9,382.1 450.0,382.1 458.2,382.2 466.3,382.4 476.1,382.5 484.2,382.7 492.4,382.9 500.5,383.4 508.7,383.7 516.8,384.7 525.0,347.0 533.1,379.6 541.3,380.7 549.4,380.8 557.6,380.8 565.7,380.8 573.9,380.8 582.0,380.8 590.2,380.8 598.3,380.8 608.1,380.8 616.3,380.8 624.4,380.8 632.6,380.8 640.7,380.8 648.9,380.8 657.0,381.3 665.2,382.3 673.3,382.4 681.5,382.5 689.6,382.7 697.8,382.7 705.9,382.8 714.1,383.0 722.2,383.8 732.0,383.8" fill="none" stroke="#d95f02" stroke-width="2"/>
<line x1="94" y1="96" x2="124" y2="96" stroke="#d95f02" stroke-width="2"/><text x="132" y="100" font-size="12">Q2 IC n27</text>
<text x="406" y="444" text-anchor="middle" font-size="15">time (ns)</text>
<text transform="translate(22,230) rotate(-90)" text-anchor="middle" font-size="15">Collector current (A)</text>
</svg>