<svg xmlns="http://www.w3.org/2000/svg" width="900" height="520" viewBox="0 0 900 520">
<rect width="900" height="520" fill="white"/>
<text x="35" y="35" font-size="24" font-weight="bold">Simplified RC-IGBT Cross-Section</text>
<rect x="60" y="85" width="780" height="40" fill="#d8f3ff" stroke="#333"/>
<text x="380" y="110" font-size="14">Top oxide and passivation</text>
<rect x="60" y="125" width="780" height="70" fill="#fdd0a2" stroke="#333"/>
<text x="385" y="165" font-size="16" font-weight="bold">P body and channel region</text>
<rect x="60" y="195" width="780" height="185" fill="#d9f0a3" stroke="#333"/>
<text x="405" y="290" font-size="22" font-weight="bold">N drift region</text>
<rect x="60" y="380" width="780" height="45" fill="#78c679" stroke="#333"/>
<text x="365" y="407" font-size="15">N buffer / field stop layer</text>
<rect x="60" y="425" width="130" height="45" fill="#f768a1" stroke="#333"/><text x="92" y="453" font-size="13">P collector</text>
<rect x="190" y="425" width="95" height="45" fill="#41b6c4" stroke="#333"/><text x="205" y="453" font-size="13">N collector</text>
<rect x="285" y="425" width="130" height="45" fill="#f768a1" stroke="#333"/><text x="317" y="453" font-size="13">P collector</text>
<rect x="415" y="425" width="95" height="45" fill="#41b6c4" stroke="#333"/><text x="430" y="453" font-size="13">N collector</text>
<rect x="510" y="425" width="130" height="45" fill="#f768a1" stroke="#333"/><text x="542" y="453" font-size="13">P collector</text>
<rect x="640" y="425" width="200" height="45" fill="#41b6c4" stroke="#333"/><text x="705" y="453" font-size="13">N collector</text>
<rect x="100" y="95" width="45" height="30" fill="#43a2ca" stroke="#333"/>
<rect x="235" y="95" width="45" height="30" fill="#43a2ca" stroke="#333"/>
<rect x="370" y="95" width="45" height="30" fill="#43a2ca" stroke="#333"/>
<rect x="505" y="95" width="45" height="30" fill="#43a2ca" stroke="#333"/>
<rect x="640" y="95" width="45" height="30" fill="#43a2ca" stroke="#333"/>
<rect x="170" y="82" width="22" height="125" fill="#756bb1" stroke="#333"/>
<rect x="305" y="82" width="22" height="125" fill="#756bb1" stroke="#333"/>
<rect x="440" y="82" width="22" height="125" fill="#756bb1" stroke="#333"/>
<rect x="575" y="82" width="22" height="125" fill="#756bb1" stroke="#333"/>
<rect x="710" y="82" width="22" height="125" fill="#756bb1" stroke="#333"/>
<text x="106" y="114" font-size="11">N emitter</text>
<text x="164" y="76" font-size="12">trench gates</text>
<line x1="270" y1="330" x2="360" y2="230" stroke="#111" stroke-width="2"/>
<text x="190" y="345" font-size="13">forward IGBT current</text>
<line x1="635" y1="225" x2="700" y2="423" stroke="#111" stroke-width="2"/>
<text x="620" y="210" font-size="13">reverse conduction path</text>
</svg>
